<svg xmlns="http://www.w3.org/2000/svg" xml:space="preserve" viewBox="0 0 52 52" id="user">
  <g fill="none" stroke="#000" stroke-linecap="round" stroke-linejoin="round" stroke-miterlimit="10" stroke-width="2">
    <path d="m27.672 21.95.01-.01a12.833 12.833 0 0 1 9.422-4.1C44.227 17.84 50 23.613 50 30.736H28.993"></path>
    <path d="M42.762 10.968c0 3.124-2.532 6.875-5.656 6.875-.848 0-1.649-.279-2.37-.743a6.27 6.27 0 0 1-1.602-1.487 15.77 15.77 0 0 1-.035-.035c-1.033-1.324-1.66-3.042-1.66-4.61A5.668 5.668 0 0 1 37.106 5.3c3.124 0 5.656 2.543 5.656 5.668zM38.435 46.7H2c0-10.062 8.155-18.217 18.217-18.217S38.435 36.638 38.435 46.7z"></path>
    <path d="M28.228 18.774c0 2.215-.903 4.644-2.347 6.514l-.05.05c-.655.837-1.427 1.575-2.28 2.1-1.017.656-2.15 1.05-3.33 1.05-4.415 0-8.008-5.3-8.008-9.714s3.593-8.007 8.007-8.007 8.008 3.594 8.008 8.007z"></path>
  </g>
  <g fill="none" stroke="#000" stroke-linecap="round" stroke-linejoin="round" stroke-miterlimit="10" stroke-width="2">
    <path d="m27.672 21.95.01-.01a12.833 12.833 0 0 1 9.422-4.1C44.227 17.84 50 23.613 50 30.736H28.993"></path>
    <path d="M42.762 10.968c0 3.124-2.532 6.875-5.656 6.875-.848 0-1.649-.279-2.37-.743a6.27 6.27 0 0 1-1.602-1.487 15.77 15.77 0 0 1-.035-.035c-1.033-1.324-1.66-3.042-1.66-4.61A5.668 5.668 0 0 1 37.106 5.3c3.124 0 5.656 2.543 5.656 5.668zM38.435 46.7H2c0-10.062 8.155-18.217 18.217-18.217S38.435 36.638 38.435 46.7z"></path>
    <path d="M28.228 18.774c0 2.215-.903 4.644-2.347 6.514l-.05.05c-.655.837-1.427 1.575-2.28 2.1-1.017.656-2.15 1.05-3.33 1.05-4.415 0-8.008-5.3-8.008-9.714s3.593-8.007 8.007-8.007 8.008 3.594 8.008 8.007z"></path>
  </g>
</svg>