<svg xmlns="http://www.w3.org/2000/svg" xml:space="preserve" id="teamwork" x="0" y="0" enable-background="new 0 0 64 64" version="1.1" viewBox="0 0 64 64">
  <path fill="#34495c" d="M12.96,22.41c-5.06,0-9.17-4.11-9.17-9.17c0-5.06,4.11-9.17,9.17-9.17c5.06,0,9.17,4.11,9.17,9.17
			C22.13,18.29,18.02,22.41,12.96,22.41z M12.96,6.93c-3.48,0-6.3,2.83-6.3,6.3c0,3.48,2.83,6.31,6.3,6.31c3.48,0,6.3-2.83,6.3-6.31
			C19.27,9.76,16.44,6.93,12.96,6.93z"></path>
  <path fill="#34495c" d="M1.43 34.04C.64 34.04 0 33.4 0 32.61v-.21c0-7.09 5.77-12.85 12.86-12.85 3.12 0 6.14 1.12 8.5 3.16.6.52.67 1.42.15 2.02-.51.6-1.42.67-2.02.15-1.84-1.59-4.2-2.46-6.63-2.46-5.51 0-9.99 4.48-9.99 9.99v.21C2.87 33.4 2.22 34.04 1.43 34.04zM51.04 22.41c-5.06 0-9.17-4.11-9.17-9.17 0-5.06 4.11-9.17 9.17-9.17 5.06 0 9.17 4.11 9.17 9.17C60.21 18.29 56.1 22.41 51.04 22.41zM51.04 6.93c-3.48 0-6.31 2.83-6.31 6.3 0 3.48 2.83 6.31 6.31 6.31 3.48 0 6.31-2.83 6.31-6.31C57.35 9.76 54.52 6.93 51.04 6.93z"></path>
  <path fill="#34495c" d="M62.57,34.04c-0.79,0-1.43-0.64-1.43-1.43c0-2.73-1.06-5.29-2.99-7.21c-1.93-1.93-4.49-2.99-7.21-2.99
			c-2.37,0-4.66,0.84-6.46,2.37c-0.6,0.51-1.51,0.44-2.02-0.16c-0.51-0.6-0.44-1.51,0.16-2.02c2.32-1.97,5.27-3.05,8.32-3.05
			c3.49,0,6.77,1.36,9.24,3.82c2.47,2.47,3.82,5.75,3.82,9.24C64,33.4,63.36,34.04,62.57,34.04z"></path>
  <path fill="#00aeef" d="M32,41.51c-7.55,0-13.69-6.14-13.69-13.69c0-7.55,6.14-13.69,13.69-13.69c7.55,0,13.69,6.14,13.69,13.69
		C45.69,35.36,39.55,41.51,32,41.51z M32,16.99c-5.97,0-10.83,4.86-10.83,10.83c0,5.97,4.86,10.83,10.83,10.83
		c5.97,0,10.83-4.86,10.83-10.83C42.83,21.85,37.97,16.99,32,16.99z"></path>
  <path fill="#00aeef" d="M50.26,59.94c-0.79,0-1.43-0.64-1.43-1.43c0-9.37-7.62-17-17-17c-9.19,0-16.66,7.47-16.66,16.66v0.34
		c0,0.79-0.64,1.43-1.43,1.43c-0.79,0-1.43-0.64-1.43-1.43v-0.34c0-10.77,8.76-19.53,19.53-19.53c10.95,0,19.86,8.91,19.86,19.86
		C51.7,59.29,51.05,59.94,50.26,59.94z"></path>
</svg>