<svg xmlns="http://www.w3.org/2000/svg" enable-background="new 0 0 64 64" viewBox="0 0 64 64" id="project">
  <path d="M58,15V2c0-0.552-0.447-1-1-1H21c-0.553,0-1,0.448-1,1v3h-3c-0.553,0-1,0.448-1,1v1h-3c-0.553,0-1,0.448-1,1v7H6
		c-2.757,0-5,2.243-5,5v38c0,2.757,2.243,5,5,5h1h51c2.757,0,5-2.243,5-5V20C63,17.243,60.757,15,58,15z M61,20v12.026
		C60.162,31.391,59.13,31,58,31V17C59.654,17,61,18.346,61,20z M56,3v28H22V3H56z M20,7v24h-2V7H20z M16,9v22h-1
		c-0.342,0-0.677,0.035-1,0.101V9H16z M6,61c-1.654,0-3-1.346-3-3V20c0-1.654,1.346-3,3-3h6v15.026c-1.207,0.914-2,2.348-2,3.974v22
		c0,1.654-1.346,3-3,3H6z M10.974,61C11.609,60.162,12,59.13,12,58V36c0-1.654,1.346-3,3-3h2.026C16.391,33.838,16,34.87,16,36v22
		c0,1.654-1.346,3-3,3H10.974z M61,58c0,1.654-1.346,3-3,3H16.974C17.609,60.162,18,59.13,18,58V36c0-1.654,1.346-3,3-3h37
		c1.654,0,3,1.346,3,3V58z"></path>
  <path d="M59,53H47c-0.553,0-1,0.447-1,1v4c0,0.553,0.447,1,1,1h12c0.553,0,1-0.447,1-1v-4C60,53.447,59.553,53,59,53z M58,57H48v-2
		h10V57z"></path>
  <rect width="2" height="2" x="43" y="57"></rect>
  <path d="M31 19h-4c-.553 0-1 .448-1 1v9c0 .552.447 1 1 1h4c.553 0 1-.448 1-1v-9C32 19.448 31.553 19 31 19zM30 28h-2v-7h2V28zM33 12v17c0 .552.447 1 1 1h4c.553 0 1-.448 1-1V12c0-.552-.447-1-1-1h-4C33.447 11 33 11.448 33 12zM35 13h2v15h-2V13zM41 30h4c.553 0 1-.448 1-1V15c0-.552-.447-1-1-1h-4c-.553 0-1 .448-1 1v14C40 29.552 40.447 30 41 30zM42 16h2v12h-2V16zM48 30h4c.553 0 1-.448 1-1V6c0-.552-.447-1-1-1h-4c-.553 0-1 .448-1 1v23C47 29.552 47.447 30 48 30zM49 7h2v21h-2V7z"></path>
  <rect width="6" height="2" x="23" y="4"></rect>
  <rect width="6" height="2" x="31" y="4"></rect>
  <rect width="14" height="2" x="23" y="7"></rect>
</svg>